# xmcd CD database file generated by Grip 3.2.0
# 
# Track frame offsets:
#       150
#       17137
#       34945
#       58187
#       74205
#       86547
#       100872
#       113327
#       133355
#       150687
#       168355
#       185630
# 
# Disc length: 2708 seconds
# 
# Revision: 4
# Processed by: cddbd v1.5.2PL0 Copyright (c) Steve Scherf et al.
# Submitted via: Grip 3.2.0
# 
DISCID=a80a920c
DTITLE=Bette Midler - Bathhouse Betty
DYEAR=1998
DGENRE=Rock
TTITLE0=Song of Bernadette
TTITLE1=I'm Beautiful
TTITLE2=Lullaby in Blue
TTITLE3=Ukulele Lady
TTITLE4=I'm Hip
TTITLE5=I Sold My Heart to the Junkman
TTITLE6=One Monkey Don't Stop No Show
TTITLE7=Boxing
TTITLE8=Big Socks
TTITLE9=That's How Love Moves
TTITLE10=My One True Friend
TTITLE11=Laughing Matters
EXTD=YEAR: 1998
EXTT0=
EXTT1=
EXTT2=
EXTT3=
EXTT4=
EXTT5=
EXTT6=
EXTT7=
EXTT8=
EXTT9=
EXTT10=
EXTT11=
PLAYORDER=
